<svg width="20" height="20" viewBox="0 0 20 20" fill="none" xmlns="http://www.w3.org/2000/svg">
<g clip-path="url(#clip0_38_1086)">
<path fill-rule="evenodd" clip-rule="evenodd" d="M6.42857 1.42857C6.42857 1.04969 6.27806 0.686328 6.01015 0.418419C5.74224 0.15051 5.37888 0 5 0C4.62112 0 4.25776 0.15051 3.98985 0.418419C3.72194 0.686328 3.57143 1.04969 3.57143 1.42857V2.85714H2.14286C1.57454 2.85714 1.02949 3.08291 0.627628 3.48477C0.225765 3.88664 0 4.43168 0 5L0 17.8571C0 18.4255 0.225765 18.9705 0.627628 19.3724C1.02949 19.7742 1.57454 20 2.14286 20H17.8571C18.4255 20 18.9705 19.7742 19.3724 19.3724C19.7742 18.9705 20 18.4255 20 17.8571V5C20 4.43168 19.7742 3.88664 19.3724 3.48477C18.9705 3.08291 18.4255 2.85714 17.8571 2.85714H16.4286V1.42857C16.4286 1.04969 16.2781 0.686328 16.0102 0.418419C15.7422 0.15051 15.3789 0 15 0C14.6211 0 14.2578 0.15051 13.9898 0.418419C13.7219 0.686328 13.5714 1.04969 13.5714 1.42857V2.85714H6.42857V1.42857ZM8.52857 7.75429C8.52857 7.44429 8.78 7.19429 9.09 7.19429H10.9114C11.22 7.19429 11.4714 7.44429 11.4714 7.75429V9.98286H13.7C14.01 9.98286 14.26 10.2343 14.26 10.5429V12.3643C14.2606 12.4381 14.2465 12.5112 14.2186 12.5795C14.1906 12.6478 14.1494 12.7098 14.0973 12.762C14.0452 12.8143 13.9833 12.8556 13.9151 12.8837C13.8469 12.9118 13.7738 12.9261 13.7 12.9257H11.4714V15.1543C11.4718 15.2279 11.4576 15.3009 11.4296 15.369C11.4016 15.4371 11.3603 15.499 11.3083 15.5511C11.2562 15.6032 11.1943 15.6444 11.1262 15.6724C11.0581 15.7004 10.9851 15.7147 10.9114 15.7143H9.08857C9.01493 15.7147 8.94194 15.7004 8.87382 15.6724C8.80571 15.6444 8.74382 15.6032 8.69175 15.5511C8.63967 15.499 8.59844 15.4371 8.57043 15.369C8.54242 15.3009 8.52819 15.2279 8.52857 15.1543V12.9257H6.3C6.22623 12.9261 6.15312 12.9118 6.08492 12.8837C6.01671 12.8556 5.95476 12.8143 5.90267 12.762C5.85057 12.7098 5.80937 12.6478 5.78144 12.5795C5.75352 12.5112 5.73943 12.4381 5.74 12.3643V10.5429C5.74 10.2343 5.99 9.98286 6.3 9.98286H8.52857V7.75429Z" fill="#9CA3AF"/>
</g>
<defs>
<clipPath id="clip0_38_1086">
<rect width="20" height="20" fill="white"/>
</clipPath>
</defs>
</svg>
